<svg xmlns="http://www.w3.org/2000/svg" viewBox="0 0 414.08 329.35"><defs><style>.cls-1{fill:#fff;}</style></defs><title>categoria</title><g id="Capa_2" data-name="Capa 2"><g id="Capa_1-2" data-name="Capa 1"><path class="cls-1" d="M267.31,91.69q-71.31,0-142.6.07c-3.06,0-4.11-.45-4.09-3.89q.25-42.12,0-84.24c0-2.91.75-3.62,3.63-3.61Q267.44.14,410.6,0c3.12,0,3.46,1.07,3.45,3.72q-.12,42.11,0,84.23c0,3-.7,3.82-3.8,3.82Q338.81,91.6,267.31,91.69Z"/><path class="cls-1" d="M267.3,210.52q-71.33,0-142.65.08c-3.2,0-4-.68-4-4q.23-42,0-83.89c0-3,.66-3.87,3.79-3.86q143,.14,286,0c2.86,0,3.63.66,3.62,3.57q-.18,42,0,83.89c0,3.25-.65,4.27-4.14,4.26Q338.63,210.41,267.3,210.52Z"/><path class="cls-1" d="M266.91,329.27q-71.13,0-142.27.08c-3.29,0-4-.81-4-4q.21-41.94,0-83.89c0-3.08.74-3.81,3.81-3.8q142.83.13,285.66,0c3.32,0,4,.86,4,4q-.19,42.12,0,84.25c0,2.75-.63,3.42-3.4,3.42Q338.79,329.19,266.91,329.27Z"/><path class="cls-1" d="M91.7,45.57c0,14.16-.06,28.31,0,42.46,0,2.64-.32,3.76-3.46,3.74q-42.47-.21-84.92,0C.46,91.78,0,90.89,0,88.26Q.17,45.8,0,3.34C0,.41.89,0,3.49,0Q46,.17,88.41,0c2.86,0,3.38.81,3.36,3.47C91.63,17.51,91.7,31.54,91.7,45.57Z"/><path class="cls-1" d="M.08,164.6c0-14.16.07-28.32-.06-42.48,0-2.57.6-3.24,3.21-3.23q42.66.15,85.33,0c2.64,0,3.21.73,3.2,3.26q-.14,42.67,0,85.34c0,2.38-.55,3.1-3,3.09q-42.86-.14-85.71,0c-2.52,0-3-.8-3-3.13C.13,193.17.08,178.88.08,164.6Z"/><path class="cls-1" d="M45.7,329.27c-14.17,0-28.33-.08-42.49.07-2.63,0-3.2-.72-3.19-3.25q.15-42.68,0-85.34c0-2.36.52-3.11,3-3.11q42.86.13,85.71,0c2.49,0,3,.75,3,3.11q-.12,42.66,0,85.34c0,2.55-.6,3.27-3.21,3.24C74.26,329.2,60,329.27,45.7,329.27Z"/></g></g></svg>