<svg xmlns="http://www.w3.org/2000/svg" viewBox="0 0 401.01 387.71"><defs><style>.cls-1{fill:#41516a;}</style></defs><title>categoria-2</title><g id="Capa_2" data-name="Capa 2"><g id="Capa_1-2" data-name="Capa 1"><path class="cls-1" d="M330.66,153.58l70.24-40.25c-.7-.46-1-.71-1.38-.91Q301.42,56.65,203.35.83c-2.47-1.41-4.11-.84-6.26.38q-58,33-116,66C54.14,82.48,27.18,97.83,0,113.28l70.34,40.3L0,193.49l70.35,40.3L.45,273.64c.82,1.46,2.36,1.86,3.62,2.58q96.54,55.21,193.08,110.41c2.42,1.39,4.16,1.48,6.62.06q95.8-54.87,191.68-109.58c1.75-1,3.46-2.08,5.47-3.29l-70.35-39.94L401,193.49ZM31.58,114.48l-2.08-1.22L182.73,26.18c5.08-2.89,10.19-5.73,15.23-8.69,1.64-1,2.92-1.28,4.79-.21q84.2,48,168.78,96c-16.55,9.5-32.89,18.91-49.26,28.26q-58.84,33.62-117.68,67.26c-2.88,1.66-4.89,1.92-8,.15Q114.18,161.57,31.58,114.48ZM371,273.64c-.64,1.37-2.05,1.68-3.18,2.33Q286,322.71,204.19,369.48c-2.65,1.51-4.55,1.64-7.28.08q-81.94-47-164-93.73c-1-.59-2.28-.95-3-2.18,17.71-10.1,35.46-20.13,53.08-30.37,2.43-1.41,3.82-.13,5.48.81q53.84,30.71,107.6,61.54c3.18,1.83,5.51,2,8.78.08,35.8-20.63,71.72-41,107.55-61.64,2.53-1.45,4.37-1.55,6.94,0C336.51,254,353.78,263.78,371,273.64Zm-15.15-73.46a6.63,6.63,0,0,0-9.19-1.33c-3,1.92-4.49,4.91-2.91,8.42,1.16,2.6-1,2.7-2.13,3.38q-32.6,18.66-65.25,37.21c-2.16,1.22-4.11,3-6.84,3.36,1.13-5-.49-8.15-4.67-9.4a7,7,0,0,0-8.81,4.54c-1.41,3.84.63,7.47,6,9.71-5.22,3-10.09,5.84-14.93,8.69-1,.62-1.74-.06-2.6-.41-5.75-2.33-10.33.25-10.64,6.27a2.8,2.8,0,0,1-1.73,2.72c-9.93,5.62-19.88,11.24-29.77,17-1.53.88-2.63.62-4.06-.2q-18-10.36-36.14-20.59a6.76,6.76,0,0,1-2.86-2.77,6.05,6.05,0,0,0-4.89-3.27c-6.79-.74-11.47-5.77-17.3-8.47-1.46-.67-.31-1.35.1-2.11,2.29-4.17,1.48-8.41-1.93-10.4-3.81-2.24-7.55-1.19-10.17,3.32-1.06,1.83-1.79,1.33-3.09.59q-34.59-19.69-69.23-39.3A3.57,3.57,0,0,1,50.9,204c-.57-4.23-3.81-7.3-7.57-6-6,2.07-9.12-2.47-14-4.22C46.12,184.18,62,175.17,77.8,166.12c1.91-1.09,3.39-2.22,5.37.34a5.1,5.1,0,0,0,6.71,1.23c2.58-1.53,4.43-.63,6.61.7,3.93,2.42,8,4.59,12.25,7-1.95,1.11-4,1.64-5.11,3.67s-1.69,4-.78,6.21a7,7,0,0,0,8.51,4.55c4-.83,5.75-4,5.3-9.85L129.09,187q29.6,16.89,59.19,33.77c1.73,1,3,1.54,2,4.22-1.41,3.72,1.36,7.68,5.32,8.64a6.75,6.75,0,0,0,8.49-5.5,5.31,5.31,0,0,1,3-4.25q33.75-19.08,67.43-38.31c1.62-.93,2.85-2.16,4.18.81,1.69,3.77,6.25,4.71,9.75,2.69a6.75,6.75,0,0,0,2.38-9.55c-1.62-2.4-.71-3,1.24-4,5.54-2.7,10.22-7.19,16.77-7.79,1.84-.17,3.07-1.67,3.95-3.3,1.27-2.37,2.81-2.72,5.26-1.32,17.7,10.13,35.47,20.14,53.45,30.32-4.28,2.46-8.43,4.75-12.46,7.23C357.65,201.61,357.05,201.52,355.89,200.18Z"/><path class="cls-1" d="M109.57,219.38a7.47,7.47,0,0,0-7.26,7.69,7.32,7.32,0,0,0,14.63-.48A7.57,7.57,0,0,0,109.57,219.38Z"/><path class="cls-1" d="M284.83,219.38a7.46,7.46,0,0,0-7.38,7.17,7.32,7.32,0,1,0,14.64.16A7.57,7.57,0,0,0,284.83,219.38Z"/><path class="cls-1" d="M219.22,241.35a7.16,7.16,0,0,0-7.37,7,7.27,7.27,0,0,0,7.27,7.6,7.53,7.53,0,0,0,7.28-7.29A7.39,7.39,0,0,0,219.22,241.35Z"/><path class="cls-1" d="M197.61,263.31a7.24,7.24,0,0,0-7.72,6.68,7.32,7.32,0,1,0,14.62.85A7.25,7.25,0,0,0,197.61,263.31Z"/><path class="cls-1" d="M87.72,197.53a7.48,7.48,0,0,0-7.37,7.3,7.28,7.28,0,0,0,7.35,7.22,7.12,7.12,0,0,0,7.27-7.2A7.33,7.33,0,0,0,87.72,197.53Z"/><path class="cls-1" d="M131.61,197.54a7.21,7.21,0,0,0-7.33,7.19,7.1,7.1,0,0,0,7.12,7.33,7.27,7.27,0,0,0,7.44-7.12A7.43,7.43,0,0,0,131.61,197.54Z"/><path class="cls-1" d="M262.66,197.54a7.46,7.46,0,0,0-7.15,7.49,7.27,7.27,0,0,0,7.53,7,7.12,7.12,0,0,0,7.07-7.4A7.3,7.3,0,0,0,262.66,197.54Z"/><path class="cls-1" d="M306.86,197.54a7.2,7.2,0,0,0-7.43,7.09,7.08,7.08,0,0,0,7,7.42,7.25,7.25,0,0,0,7.53-7A7.41,7.41,0,0,0,306.86,197.54Z"/><path class="cls-1" d="M175.48,241.35a7.39,7.39,0,0,0-7.54,7.38A7.59,7.59,0,0,0,175.3,256a7.34,7.34,0,0,0,7.24-7.25A7.22,7.22,0,0,0,175.48,241.35Z"/><path class="cls-1" d="M153.81,219.4A7.31,7.31,0,0,0,153,234a7.17,7.17,0,0,0,7.62-6.86A7.28,7.28,0,0,0,153.81,219.4Z"/><path class="cls-1" d="M240.82,219.38a7.36,7.36,0,0,0-7.1,7.49,7.25,7.25,0,0,0,7.4,7.14,7.16,7.16,0,0,0,7.06-7.43A7.27,7.27,0,0,0,240.82,219.38Z"/><path class="cls-1" d="M66,175.72a7.14,7.14,0,0,0-7.39,7.1,7.26,7.26,0,0,0,7.13,7.42A7.18,7.18,0,0,0,73,183.08,7.09,7.09,0,0,0,66,175.72Z"/><path class="cls-1" d="M328.65,175.73a7.13,7.13,0,0,0-7.37,7.11,7.26,7.26,0,0,0,7.15,7.4,7.17,7.17,0,0,0,7.32-7.18A7.07,7.07,0,0,0,328.65,175.73Z"/></g></g></svg>