<svg xmlns="http://www.w3.org/2000/svg" viewBox="0 0 396.78 396.77"><defs><style>.cls-1{fill:#41516a;}</style></defs><title>color_1</title><g id="Capa_2" data-name="Capa 2"><g id="Capa_1-2" data-name="Capa 1"><path class="cls-1" d="M392.76,268.74c-28.33.11-56.66.07-85,.06-1.24,0-2.49-.12-4.49-.22l2.78-1.62q37.59-21.72,75.22-43.39c2.16-1.24,2.79-2,1.36-4.49q-30.42-52.44-60.56-105c-1.48-2.59-2.5-2.82-5-1.34Q280.59,133.93,244,154.93c-1.2.69-2.44,1.31-4.65,2.48,1.2-2.23,1.79-3.39,2.44-4.52,13.92-24.14,27.78-48.31,41.85-72.36,1.78-3,1.82-4.3-1.49-6.19Q230,44.58,178.12,14.42c-2.61-1.52-3.56-1.38-5.09,1.31C158.94,40.39,144.68,65,130.47,89.56c-.62,1.09-1.26,2.17-1.88,3.25L128,92.6V88.71c0-28.33,0-56.66.08-85,0-3-.72-3.73-3.73-3.72Q64,.18,3.71,0C.66,0,0,.75,0,3.74q.14,163.7.08,327.4A66.67,66.67,0,0,0,1.89,348c7.62,29.27,32.61,48.66,63.22,48.68q164.1.12,328.21.11c2.94,0,3.44-.87,3.43-3.59q-.13-60.3,0-120.6C396.79,269.25,395.74,268.73,392.76,268.74Zm-80.6-138.27c2.46-1.43,3.62-1.68,5.29,1.24Q340.91,173,364.79,214c1.57,2.7,1.14,3.63-1.43,5.09Q321.63,243,280,267.15a10.83,10.83,0,0,1-5.66,1.7q-99.52-.08-199-.05c-.39,0-.78-.05-2.32-.16,17.88-10.31,34.85-20.09,51.81-29.89Q218.5,184.65,312.16,130.47ZM177.68,33.35c1.55-2.69,2.54-2.83,5.12-1.33q41.05,23.82,82.29,47.35c2.5,1.42,3,2.25,1.41,4.95q-24.37,41.78-48.4,83.75a10.06,10.06,0,0,1-3.79,4q-84.93,49-169.82,98.16c-1.08.62-2,1.74-3.59,1.53-.26-1.56.88-2.51,1.5-3.59Q110,150.73,177.68,33.35ZM12.79,17.58c0-3.89.87-4.81,4.77-4.79,31.28.18,62.57.14,93.85,0,2.88,0,3.83.5,3.82,3.66-.14,32.36-.09,64.72-.06,97.08a9.46,9.46,0,0,1-1.25,5q-49.71,86-99.36,172c-.31.53-.66,1-1,1.56l-.69-.23v-4Q12.89,152.69,12.79,17.58ZM379.71,384q-156.55-.12-313.13,0c-24.46,0-44.34-14.32-51.23-35.72-9.27-28.78,9.07-59.91,38.8-65.65a67.77,67.77,0,0,1,12.87-1H220.35q79.7,0,159.39-.07c3.27,0,4.24.61,4.23,4.09q-.24,47.13,0,94.26C384,383.43,382.92,384,379.71,384Z"/><path class="cls-1" d="M324.82,351.91q-102,.16-203.94.08c-9,0-8.86,0-9.07,8.86-.07,3.22.88,3.93,4,3.92,34.94-.11,69.87-.07,104.8-.07H321.35c8.06,0,7.83,0,8.15-8.25C329.65,352.59,328.37,351.91,324.82,351.91Z"/><path class="cls-1" d="M64.08,300.83c-17.51,0-32,14.13-32,31.31,0,18.31,14.1,32.64,32,32.53,17.45-.11,31.79-14.28,31.9-31.53A32.06,32.06,0,0,0,64.08,300.83Zm0,51.17c-10.6.12-19.32-8.76-19.32-19.69,0-10.08,9-18.88,19.31-18.85s19.1,8.84,19.18,19.46C83.35,343,74.44,351.87,64.1,352Z"/></g></g></svg>