<svg xmlns="http://www.w3.org/2000/svg" viewBox="0 0 235.69 218.29"><defs><style>.cls-1{fill:#fff;}</style></defs><title>descargar_1</title><g id="Capa_2" data-name="Capa 2"><g id="Capa_1-2" data-name="Capa 1"><path class="cls-1" d="M117.8,218.26c-24.18,0-48.36,0-72.54,0-9.07,0-17.52-2-25.09-7.06C7.94,203.1.71,191.64.32,177c-.57-21.64-.21-43.31-.19-65a6.62,6.62,0,0,1,6.78-6.59,6.64,6.64,0,0,1,6.64,6.93c0,16.76,0,33.51,0,50.26,0,5.39-.27,10.78.35,16.17,1.55,13.29,13.64,24.91,27,25.81q3.15.21,6.3.21,71.39,0,142.78,0c5.91,0,11.61-.91,16.74-4,10.2-6.14,15.36-15.25,15.4-27.14.06-20,0-39.95,0-59.93,0-4.75,3.08-7.73,7.48-7.29a6.73,6.73,0,0,1,5.94,6.11c0,.41,0,.84,0,1.26,0,20.11.14,40.23,0,60.34-.16,16.84-7.73,29.66-22.13,38.32-7.06,4.24-14.89,5.81-23.13,5.79C166.16,218.22,142,218.26,117.8,218.26Z"/><path class="cls-1" d="M111.14,143.15v-2.24q0-66.64-.06-133.29c0-4.31,3.25-8.18,7.72-7.55a6.77,6.77,0,0,1,5.77,6c.06.76,0,1.54,0,2.31V143.14l.58.47a9.87,9.87,0,0,1,1.13-1.68q14.69-14.75,29.42-29.45a6.75,6.75,0,0,1,11.52,2.86c.81,2.73-.31,4.94-2.13,6.86s-3.75,3.78-5.63,5.66q-17.94,17.89-35.88,35.78c-4.07,4.07-7.41,4.06-11.51,0q-20.49-20.38-41-40.77c-1.58-1.58-2.81-3.29-2.86-5.64a6.7,6.7,0,0,1,11.52-4.84q15.39,15.54,30.74,31.1Z"/></g></g></svg>