<svg xmlns="http://www.w3.org/2000/svg" viewBox="0 0 351 350.57"><defs><style>.cls-1{fill:#41516a;}</style></defs><title>etiqueta</title><g id="Capa_2" data-name="Capa 2"><g id="Capa_1-2" data-name="Capa 1"><path class="cls-1" d="M346.81,198.24l-34.42-34.42c-54.8-54.8-77.5-77.37-133.18-133.15-4.71-4.72-9.84-5.93-16.14-3.8-19.17,6.49-38.71,13-57.6,19.3Q89.79,51.39,74.12,56.63c-4.89-5-18.61-18.35-30.77-30.19-8-7.82-15-14.57-17.75-17.36-.51-.51-1-1-1.52-1.55a59.38,59.38,0,0,0-5-4.77A11.72,11.72,0,0,0,8.21.48,11.6,11.6,0,0,0,.57,8.16C-1.59,14.93,3,19.5,4.51,21c8.21,8.17,41.75,40.88,53.18,52-5.7,16.84-11.43,34-17,50.54q-6.51,19.46-13,38.88c-2,5.88-.81,11,3.47,15.3q72.54,72.45,145,145l23.2,23.08c3.21,3.21,6.36,4.81,9.51,4.81s6.21-1.57,9.35-4.7l51.2-51.19Q308.22,255.9,347,217.13a11.74,11.74,0,0,0,3.91-9.43C351.57,202.85,348.29,199.67,346.81,198.24ZM51.59,165C58.43,144.61,65.3,123.88,72,103.82L76,91.56c4.27,4.28,8.46,8.49,12.67,12.68a34.7,34.7,0,0,0-.43,29,35.36,35.36,0,0,0,24.1,19.7c16.49,4.09,34.49-5.55,40.14-21.48,6.15-17.4-1.23-36.16-17.18-43.65a34.2,34.2,0,0,0-30.15-.13c-4.19-4.22-8.45-8.42-12.6-12.52l15.72-5.24c18.94-6.32,38.53-12.85,57.78-19.36,69.3,69.37,97.95,97.91,157.37,157.25-38.2,38-76.74,76.51-114.62,114.49C141.61,254.91,113,226.37,51.59,165Z"/></g></g></svg>