<svg xmlns="http://www.w3.org/2000/svg" xmlns:xlink="http://www.w3.org/1999/xlink" viewBox="0 0 242.34 268.98"><defs><style>.cls-1{fill:url(#Degradado_sin_nombre_8);}</style><linearGradient id="Degradado_sin_nombre_8" x1="39.63" y1="77.63" x2="238.45" y2="216.19" gradientUnits="userSpaceOnUse"><stop offset="0" stop-color="#662d91"/><stop offset="0.16" stop-color="#5e3294"/><stop offset="0.41" stop-color="#49409d"/><stop offset="0.71" stop-color="#2757ab"/><stop offset="1" stop-color="#0071bc"/></linearGradient></defs><title>invierno</title><g id="Capa_2" data-name="Capa 2"><g id="Capa_1-2" data-name="Capa 1"><path class="cls-1" d="M234.45,160.78l-1.39.36c-11.63,3.16-23.27,6.3-34.88,9.53a3.67,3.67,0,0,1-3.14-.4c-4-2.34-8-4.61-12-6.91l-14.11-8.06c1.1-.44,1.9-.79,2.72-1.09L211,140c3.42-1.25,4.92-3,4.86-5.75s-1.57-4.37-4.82-5.53L192.32,122,169,113.62c.58-.39.89-.63,1.22-.82,8.3-4.8,16.61-9.56,24.87-14.41A3.73,3.73,0,0,1,198.2,98q9.12,2.49,18.26,4.95l18,4.89c2.29.62,4.42.58,6.19-1.31a5.45,5.45,0,0,0-2.38-9.07c-3.41-1.12-6.91-2-10.38-2.89l-17.66-4.79c1-.63,1.66-1,2.32-1.42q11.31-6.53,22.63-13a5.71,5.71,0,0,0,3.21-4.21,5.27,5.27,0,0,0-2.29-5.43,5.55,5.55,0,0,0-6.33-.07l-22.66,13c-.7.4-1.44.74-2.45,1.25.16-.72.22-1,.3-1.31,2.38-8.87,4.8-17.72,7.12-26.6a5.47,5.47,0,0,0-3.68-6.64,5.63,5.63,0,0,0-6.87,3.37,14.33,14.33,0,0,0-.56,1.83c-3.21,11.87-6.44,23.73-9.58,35.61A4.16,4.16,0,0,1,189.21,89C181,93.64,172.86,98.36,164.68,103c-.48.28-.92.84-1.7.56,2.65-14.87,5.27-29.65,7.93-44.43a6.5,6.5,0,0,0-.72-5.07c-2-3-5.66-3.31-8.75-.71q-13.66,11.55-27.27,23.15l-7.39,6.24c0-10.66,0-20.81,0-31,0-1.15.75-1.7,1.41-2.36l26.46-26.53c2.61-2.62,2.8-6,.5-8.28s-5.54-2.28-8.27.35c-2.24,2.17-4.44,4.39-6.63,6.61-4.31,4.36-8.59,8.73-13,13.21a4.23,4.23,0,0,1-.44-2.69q0-12.6,0-25.22a7.08,7.08,0,0,0-1.25-4.76,5.43,5.43,0,0,0-6-1.87c-2.66.9-4,2.7-4,5.88,0,8.73,0,17.46,0,26.18,0,.71.41,1.57-.58,2.32L96,15.53a7.71,7.71,0,0,0-3.74-2.48A5.75,5.75,0,0,0,86.23,16a5.48,5.48,0,0,0,1.12,6.6Q100.73,36,114.17,49.4a4.29,4.29,0,0,1,1.43,3.33c-.06,9.37,0,18.74,0,28.1,0,.57.33,1.27-.47,1.8L97.85,68.15C92,63.26,86.23,58.35,80.39,53.48c-2.28-1.9-4.6-2.12-6.87-.8-2.12,1.23-2.94,3.3-2.41,6.22Q73.48,72,75.87,85.08c1.12,6.18,2.22,12.36,3.38,18.82-.59-.26-.88-.36-1.14-.51-8.11-4.62-16.2-9.3-24.36-13.85a6,6,0,0,1-3.21-4.07c-3.12-11.8-6.36-23.58-9.6-35.35-1-3.74-3.86-5.46-7.2-4.53-3.12.87-4.48,3.77-3.48,7.5q1.39,5.2,2.81,10.41l4.52,16.75L35.36,79c-7.69-4.4-15.37-8.84-23.08-13.2-3.7-2.08-7.77-.25-8.53,3.72-.47,2.48.7,4.7,3.43,6.27,7.48,4.3,15,8.55,22.45,12.85.7.4,1.64.54,2,1.5C22.67,92.59,13.81,95,5,97.42c-3.82,1-5.64,3.84-4.73,7s3.91,4.7,7.67,3.69c9.71-2.62,19.57-4.8,29.06-8,6.34-2.18,11.39-1.53,16.87,2.16,6.18,4.17,12.9,7.53,19.62,11.37-.88.36-1.45.62-2,.83l-40.49,14.7c-3.05,1.11-4.44,2.91-4.4,5.56s1.36,4.35,4.48,5.46l38.55,13.75c1.2.43,2.39.89,3.93,1.47-9.15,5.29-17.92,10.35-26.67,15.46a3.26,3.26,0,0,1-2.75,0c-3.63-1-7.24-2-10.86-3q-12.48-3.42-24.94-6.83c-3.37-.92-6-.06-7.37,2.34-1.85,3.23-.33,7,3.49,8.15,4.5,1.36,9.07,2.51,13.62,3.75l14.15,3.85c-1.08.64-1.75,1-2.44,1.44Q18.6,187,7.5,193.41c-1.71,1-3.22,2.13-3.55,4.24a5.33,5.33,0,0,0,2.33,5.64,5.4,5.4,0,0,0,6.09.11q11.34-6.48,22.67-13a4.63,4.63,0,0,1,2.31-1.06c.27.43.06.79,0,1.17-2.35,8.71-4.71,17.42-7,26.14A5.38,5.38,0,0,0,33,223.21c3.45,1.86,7.06-.07,8.26-4.48,3.25-11.94,6.5-23.88,9.64-35.84a4.47,4.47,0,0,1,2.38-3c8.12-4.61,16.21-9.29,24.33-13.92.5-.28.92-.89,1.76-.6q-3.91,22.07-7.83,44.12c-.63,3.56.09,5.78,2.43,7.13s4.7.87,7.41-1.42c4.71-4,9.39-8,14.09-12,6.56-5.58,13.13-11.15,20.1-17.05,0,10.25,0,19.94,0,29.62a5,5,0,0,1-1.63,4c-8.77,8.67-17.44,17.45-26.17,26.16-1.78,1.78-2.72,3.75-1.9,6.26,1.37,4.22,6.21,5.09,9.69,1.67,6.11-6,12.14-12.08,18.23-18.11.46-.46.76-1.22,1.75-1.19V237c0,8.49,0,17,0,25.46,0,3.9,2,6.36,5.19,6.56,3.55.23,6-2.34,6-6.48,0-8.57,0-17.14,0-25.7v-2.27a4.63,4.63,0,0,1,2.06,1.49l17.68,17.64c1.66,1.65,3.5,2.86,6,2.13,4.53-1.32,5.67-6.14,2.21-9.63-8.5-8.59-17-17.17-25.63-25.65a7,7,0,0,1-2.37-5.61c.14-8.65,0-17.29.07-25.94a4.6,4.6,0,0,1,.33-2.72l5.16,4.31q14.9,12.51,29.78,25a5.56,5.56,0,0,0,6.66.81c2.14-1.28,3-3.4,2.53-6.19q-2.87-15.81-5.75-31.61c-.8-4.41-1.56-8.82-2.41-13.66,8.77,5,17.05,9.79,25.41,14.44a6.24,6.24,0,0,1,3.32,4.26c3.12,11.81,6.36,23.58,9.61,35.36,1,3.58,3.83,5.32,7,4.43s4.61-3.84,3.65-7.46c-.44-1.7-.9-3.39-1.36-5.09-2-7.29-4-14.59-6-22.16l4,2.29c7.07,4,14.12,8.12,21.21,12.12,3.86,2.18,8.27.08,8.64-4.09.25-2.81-1.27-4.61-3.63-5.95-7.5-4.24-15-8.55-22.45-12.84-.66-.38-1.52-.54-1.84-1.41,8.88-2.42,17.74-4.82,26.59-7.26,3.83-1,5.71-3.86,4.81-7S238.19,159.81,234.45,160.78ZM101,85.28q6.7,5.64,13.4,11.28a2.58,2.58,0,0,1,1.24,2.15c0,8.56,0,17.11,0,25.62-.88.35-1.34-.25-1.85-.54-6.67-3.77-13.31-7.61-20-11.34a3.74,3.74,0,0,1-2.11-2.87c-2.22-12.42-4.5-24.83-6.87-37.89ZM78.27,145.47c-9.53-4-19.42-7.17-29.7-10.87l23.92-8.71c4.12-1.5,8.25-2.94,12.36-4.46a2.56,2.56,0,0,1,2.46,0c7.31,4.24,14.65,8.43,22,12.64.11.06.15.25.32.55-5.36,3.11-11,5.85-16,9.42S84,147.88,78.27,145.47Zm35.41,27.67c-8.88,7.45-17.68,15-26.51,22.51a3.45,3.45,0,0,1-2.07,1.24c1.55-8.75,3.07-17.31,4.59-25.87.71-4,1.45-8,2.16-12,.11-.63.11-1.26.77-1.64l22.52-13a2.85,2.85,0,0,1,.41,2.23c0,7.52,0,15,.06,22.56A4.61,4.61,0,0,1,113.68,173.14Zm13.12-50.2c0-7.91,0-15.83,0-23.75a3.08,3.08,0,0,1,1.09-2.7q14-11.83,28-23.76c.35-.29.66-.73,1.39-.51-1.14,6.49-2.27,13-3.42,19.52-1.08,6.05-2.19,12.09-3.26,18.14-.13.72-.18,1.39-.92,1.82-7.45,4.27-14.9,8.57-22.29,12.83C126.53,124.06,126.81,123.44,126.8,122.94Zm8,55.12-.36-.32c-2.49-2.13-6-3.8-7.19-6.5-1.28-2.9-.4-6.75-.41-10.18,0-5.5,0-11,0-16.46,1-.19,1.56.41,2.15.75,6.67,3.77,13.32,7.57,20,11.32a3,3,0,0,1,1.74,2.32c2.25,12.57,4.57,25.12,7,38.29Zm23.12-30.65a3,3,0,0,1-2.92.05c-7.35-4.31-14.76-8.51-22.12-12.74,0-.83.72-.91,1.16-1.16,6.82-4,13.66-7.9,20.5-11.85a2.91,2.91,0,0,1,2.66-.59c12,4.36,24.06,8.7,36.62,13.23l-11,4Q170.35,142.89,157.87,147.41Z"/></g></g></svg>