<?xml version="1.0" encoding="iso-8859-1"?>
<!-- Generator: Adobe Illustrator 22.1.0, SVG Export Plug-In . SVG Version: 6.00 Build 0)  -->
<svg version="1.1" id="Layer_1" xmlns="http://www.w3.org/2000/svg" xmlns:xlink="http://www.w3.org/1999/xlink" x="0px" y="0px"
	 viewBox="0 0 476.707 155.014" style="enable-background:new 0 0 476.707 155.014;" xml:space="preserve">
<g>
	<path style="fill-rule:evenodd;clip-rule:evenodd;fill:#fff;" d="M411.893,71.797c4.107-12.472,8.365-24.941,12.624-37.264
		c0.152-0.297,0.454-1.189,0.608-1.931c-0.304,0.148-0.456,0.298-0.608,0.298l-0.152,0.147
		c-17.797,7.274-34.224,18.559-48.824,30.734c-1.674,1.484-3.953,2.97-6.235,2.377c-3.043-0.893-3.803-4.902-4.262-7.425
		c-0.605-4.306-3.496-17.818-4.104-25.091c-1.523-14.401,52.623-32.813,66.313-32.962c5.932-0.146,50.499-3.413,49.435,5.792
		c-1.37,4.604-3.198,9.057-4.869,13.363c-2.282,5.493-4.715,10.986-7.301,16.331c-5.779,11.876-12.017,23.604-18.556,35.038
		c6.694,0,13.385,0,20.078,0.148c11.712-0.445,13.69,11.135,2.586,12.026c-3.956,0.297-8.063,0.297-12.014,0.446
		c-6.088,0-12.02,0.148-17.95,0.148c-12.017,21.084-22.662,42.758-31.484,65.177c-0.454,1.039-1.219,1.93-2.282,2.227
		c-0.456,0.296-1.064,0.445-1.671,0.296c-4.87-0.148-4.108,0.149-9.126-1.781c-10.039-3.712-13.233-9.353-6.542-17.816v-0.148
		c1.522-1.93,2.736-4.008,3.956-6.088c1.975-3.413,3.801-6.827,5.627-10.394c1.519-4.452,3.042-8.906,4.563-13.362
		c1.976-5.937,3.953-11.875,5.929-17.962c-8.819,0.148-17.643,0.148-26.617,0.148c-6.537,0.592-13.384,1.186-19.921,0.74
		c-5.175-0.443-10.193-1.334-14.907-3.561c-0.763-0.297-1.369-0.742-1.978-1.039c-4.413-2.375-9.429-3.415-14.45-2.672
		c-5.929,0.74-11.254,4.008-15.056,8.611c-3.195,3.86-8.516,9.798-14.297,8.907c-5.021-0.593-8.062-6.235-9.736-10.246v-0.148
		c-0.303-0.149-0.608,0.297-0.758,0.445h-0.154c-5.779,5.794-12.778,11.881-20.229,15.591c-5.476,2.821-11.559,4.456-17.646,3.118
		c-8.361-1.633-14.6-8.316-19.01-15.141c-0.305-0.448-0.608-0.747-1.065-0.894c-1.672-0.892-4.409,0.595-5.78,1.485
		c-3.954,2.375-7.452,6.234-10.34,9.649c-3.195,4.011-9.434,10.988-15.367,9.355c-2.43-0.742-4.105-2.522-5.169-4.751
		c-1.216-1.784-3.194-4.604-5.625-4.752c-0.916-0.149-1.828,0.296-2.587,0.745c-13.08,8.166-29.66,16.031-45.477,12.024
		c-9.584-2.524-17.187-8.759-23.424-16.036l-0.152-0.149v-0.295h-0.608c-19.165,36.078-51.865,54.042-92.63,59.538
		c-4.559,0.445-9.58,0.296-13.99-1.19c-3.653-1.186-6.694-3.415-8.673-6.531c-1.821-3.119-2.279-6.831-1.821-10.246h0.15v-0.149
		c2.28-10.986,12.774-19.152,22.056-24.794c7.297-4.305,15.208-7.868,23.118-10.986c10.035-3.859,20.532-7.275,31.029-10.244
		c2.28-0.445,6.385-2.078,6.385-4.898c0-1.634-1.37-3.122-2.736-3.862c-2.737-1.779-6.54-2.377-9.734-2.377
		c-4.869-0.148-9.584-0.148-14.296-0.297c-4.869-0.148-9.736-0.445-14.605-0.742c-4.561-0.147-9.278-1.037-13.232-3.116
		c-3.193-1.633-5.779-4.157-7.147-7.573c-1.827-5.047,0.15-10.392,3.192-14.696l0.152-0.151c21.75-23.012,59.32-35.335,89.741-42.31
		h0.15c1.979-0.3,3.955-0.152,5.779,0.889c1.522,0.742,2.587,2.226,3.043,3.86c0.304,1.484-0.154,3.117-1.064,4.455
		c-1.066,1.483-2.739,2.522-4.411,3.116h-0.152c-15.21,3.711-30.423,8.167-44.719,14.255c-10.343,4.306-20.836,9.799-29.354,17.073
		c-1.672,1.335-7.145,6.085-6.235,8.462c0.761,2.671,8.822,3.264,11.104,3.417c5.779,0.297,11.558,0.742,17.339,1.186
		c4.867,0.444,9.732,1.038,14.449,1.932c7.301,1.482,14.904,3.71,20.837,8.164c1.976,1.186,3.955,2.373,6.081,3.266
		c2.587,1.187,6.545,2.524,9.13,0.593h0.152c8.365-5.198,18.097-10.095,27.679-12.172c6.998-1.487,15.212-1.636,20.991,2.819
		c1.063,0.742,1.978,1.634,2.74,2.524v0.149c0.909,1.039,1.517,2.375,1.517,3.858c0.154,3.713-3.345,6.681-6.235,8.611
		c-2.281,1.637-4.713,2.971-7.148,4.307c-2.889,1.485-5.626,2.821-8.517,4.009c0.458,0.592,0.912,1.187,1.368,1.634
		c2.131,1.928,5.019,2.673,7.911,2.673c3.953,0.147,8.06-0.894,11.558-2.228c9.734-3.712,18.56-10.837,24.489-19.153
		c1.066-1.336,2.28-2.821,3.801-3.711c1.217-0.742,2.738-1.336,4.106-0.742c1.977,0.742,2.585,2.82,2.737,4.749
		c0.152,0.89,0.303,1.931,0.612,2.97c0.456,2.079,1.064,4.159,2.128,6.087c0.15,0.297,0.61,0.743,1.066,0.892
		c1.67,0.445,4.257-1.929,5.323-2.968c2.89-2.974,5.627-6.833,7.604-10.395c0.915-1.929,2.128-3.711,3.652-4.899
		c1.368-1.186,3.042-1.931,4.865-1.486c1.978,0.449,3.042,2.08,3.651,3.861c0.457,1.483,1.217,3.562,2.739,4.306
		c1.367,0.743,3.952,0.299,5.78,0c0.303-1.188,0.608-2.375,0.758-3.563c1.521-5.198,4.258-8.611,8.519-12.175h0.152
		c3.039-2.08,6.386-3.712,9.884-4.456c2.891-0.591,5.933-0.74,8.823,0c4.717,1.042,9.128,4.013,10.039,8.909
		c0.91,4.159-1.367,8.019-4.563,10.541h-0.15c-3.044,2.08-6.087,3.864-9.281,5.495c-4.868,2.524-9.428,4.901-13.839,8.166
		c-0.153,0-0.457,0.148-0.609,0.297c0,0.148,0.152,0.296,0.152,0.445c0.153,0.447,0.457,0.891,0.76,1.336
		c1.521,1.633,4.259,1.93,6.39,1.93c3.952-0.148,8.057-1.633,11.557-3.118c8.062-4.155,16.122-11.582,22.054-18.261
		c1.368-1.633,3.195-3.413,5.02-4.603c1.37-0.89,3.194-1.631,4.715-0.89c2.74,1.483,1.976,6.087,1.519,8.462
		c-0.149,0.592-0.304,1.336-0.304,1.931c0,0.742,0.155,1.482,0.761,2.076c0.611,0.746,1.827,1.041,2.737,1.19
		c1.677,0.148,3.499-0.297,5.022-0.893c4.715-1.631,8.516-5.194,10.951-9.352c1.979-4.604,8.822-5.79,13.385-5.79
		c3.347,0,7.451,0.446,10.492,2.08h0.155c3.345,2.076,6.995,4.304,10.796,5.492c2.587,0.743,5.323,0.891,8.062,1.188
		C380.412,72.688,396.074,72.093,411.893,71.797 M23.435,140.241c0.304,0.297,1.062,0.592,1.368,0.744
		c1.064,0.445,2.433,0.445,3.651,0.445c19.467-0.744,38.63-14.105,52.625-26.282c0.304-0.297,0.914-0.74,1.218-1.186h-1.369
		c-19.775,4.305-42.458,12.299-57.363,26.107L23.435,140.241z M151.5,80.114c-0.151-0.301-0.303-0.449-0.607-0.598
		c-2.283-1.779-7.607,0.297-9.888,1.338c-1.977,1.039-4.257,2.376-5.779,4.007c-0.458,0.445-1.671,1.785-1.671,2.525
		c2.431,1.931,7.604,0.594,10.034-0.298c2.131-0.887,4.413-2.079,6.083-3.561c0.765-0.593,1.981-2.079,1.981-3.118
		C151.5,80.409,151.5,80.262,151.5,80.114 M268.313,64.523v-0.445c-0.305-0.297-1.671-0.149-2.133-0.149
		c-1.822,0.297-3.801,1.188-5.321,2.229c-3.65,2.075-6.843,5.343-8.976,8.906c5.326-0.148,11.409-1.336,14.455-5.196
		C267.55,68.233,268.159,66.455,268.313,64.523"/>
</g>
</svg>
