<svg xmlns="http://www.w3.org/2000/svg" viewBox="0 0 389.47 389.43"><defs><style>.cls-1{fill:#41516a;}</style></defs><title>material</title><g id="Capa_2" data-name="Capa 2"><g id="Capa_1-2" data-name="Capa 1"><path class="cls-1" d="M31.67,387.57c-.81-.26-1.59-.49-2.35-.75-13.07-4.56-21.87-13.39-26.66-26.38-.89-2.42-.47-3.87,1.33-5.67Q133.56,225.35,263,95.82,309,49.88,354.87,3.89c1.71-1.71,3.06-2.13,5.39-1.26C373,7.36,381.6,16,386.59,28.57c1,2.56.79,4.22-1.3,6.3q-49.14,48.89-98.1,98Q161,259,34.84,385.16C33.91,386.09,33.28,387.52,31.67,387.57Z"/><path class="cls-1" d="M.07,253.14c0-20,0-39.56,0-59.11a3.86,3.86,0,0,1,1.41-3.32,18.66,18.66,0,0,0,1.48-1.47Q96.17,96,189.36,2.73A8.38,8.38,0,0,1,196,0c17.83.12,35.67.06,53.5.06h3.64Q126.46,126.77.07,253.14Z"/><path class="cls-1" d="M389.36,136.41c0,20,0,39.65,0,59.32a3.14,3.14,0,0,1-1.13,2.73,17.09,17.09,0,0,0-1.48,1.47q-93.47,93.48-186.91,187a7.7,7.7,0,0,1-6,2.5c-18-.11-35.91-.06-53.86-.06H136.4Z"/><path class="cls-1" d="M.09,85.32c0-14.23-.24-29,.06-43.86C.58,19.67,19.36.71,41.12.18,56-.18,71,.11,85.3.11Z"/><path class="cls-1" d="M303.34,389.37l85.75-85.75c.68.74.24,1.82.25,2.78q0,19.29,0,38.58c-.07,25.39-19,44.31-44.35,44.38C331.23,389.4,317.45,389.37,303.34,389.37Z"/></g></g></svg>