<svg xmlns="http://www.w3.org/2000/svg" xmlns:xlink="http://www.w3.org/1999/xlink" viewBox="0 0 275.69 275.62"><defs><style>.cls-1{fill:url(#Degradado_sin_nombre_8);}</style><linearGradient id="Degradado_sin_nombre_8" x1="28.44" y1="85.93" x2="270.19" y2="218.47" gradientUnits="userSpaceOnUse"><stop offset="0" stop-color="#662d91"/><stop offset="0.16" stop-color="#5e3294"/><stop offset="0.41" stop-color="#49409d"/><stop offset="0.71" stop-color="#2757ab"/><stop offset="1" stop-color="#0071bc"/></linearGradient></defs><title>otoño</title><g id="Capa_2" data-name="Capa 2"><g id="Capa_1-2" data-name="Capa 1"><path class="cls-1" d="M270.32,155.92q-13.15-2.17-26.29-4.37c-6.33-1.06-12.66-2.15-19.39-3.3l13.72-16.45q13.24-15.89,26.52-31.76c1.41-1.68,2.05-3.44,1.18-5.5s-2.77-2.72-4.92-2.68c-.9,0-1.8,0-2.7,0H196.65c-3.28,0-3.28,0-2-3.16Q202.55,68.85,210.48,49c1-2.37,1.44-4.55-.72-6.57s-4.15-1.16-6.31-.08C193.74,47.25,184,52,174.33,57c-2.1,1.09-2.73.63-3.72-1.25-5.2-9.88-10.56-19.67-15.85-29.5q-6.1-11.32-12.17-22.66c-1-1.95-2.44-3.58-4.76-3.57s-3.75,1.63-4.74,3.62c-.22.45-.45.89-.69,1.33Q118.63,30.48,104.91,56c-.92,1.73-1.58,1.93-3.32,1.05-9.85-5-19.78-9.89-29.66-14.87-2.13-1.07-4.06-1.59-6,.27s-1.79,3.77-.87,6c2.82,6.92,5.57,13.87,8.34,20.81l9,22.55H78.71q-31.65,0-63.29,0c-2.39,0-4.71.12-5.8,2.72-1,2.35.11,4.16,1.61,6q17.54,20.91,35,41.9c1.55,1.87,3.42,3.54,4.53,5.9l-8.46,1.43q-18.75,3.17-37.5,6.3C2.37,156.46.61,157.48.1,160s.88,3.92,2.79,5.11c2.37,1.48,4.71,3,7.06,4.53,16.61,10.7,33.2,21.43,49.85,32,1.79,1.14,2.16,1.86.59,3.45C58.56,207,57,209.06,55.26,211c-5.67,6.59-11.38,13.15-17,19.8-2.41,2.85-1.68,6.58,1.34,7.72,1.59.59,3.17.08,4.73-.2,12.46-2.32,24.91-4.71,37.38-7,10.23-1.86,20.34-4,29.51-9.3a70.38,70.38,0,0,0,22-19.53c0,14.25,0,27.54,0,40.82a39.09,39.09,0,0,0,2.13,13.84,36.72,36.72,0,0,0,13.53,17.48c2.32,1.63,4.39,1,6.17-.82s1.48-4.25-.39-6.15a20.77,20.77,0,0,0-1.81-1.57c-6.71-5.39-10.34-12.29-10.35-21q0-20.4,0-40.8c0-.34-.14-.82.57-1,.26.32.56.67.85,1a66.88,66.88,0,0,0,39.19,24.7c8.87,2,17.82,3.51,26.74,5.2,7.75,1.47,15.5,2.94,23.27,4.27,3.79.64,6.27-1.79,5.66-5.21-.3-1.7-1.51-2.79-2.54-4-6.83-8-13.64-16-20.58-23.83-1.61-1.82-1.82-2.62.49-4.09,18.69-11.89,37.28-23.94,55.92-35.91,2.08-1.34,4.09-2.63,3.51-5.61S272.8,156.33,270.32,155.92Zm-137.11-4c-1.3.12-2-.78-2.89-1.31Q112.89,139.85,95.48,129c-1.75-1.09-3.42-2-5.55-.87-2.79,1.49-3.51,4.68-1.35,7a13.5,13.5,0,0,0,2.85,2.15q17.66,11,35.33,22c.67.42,1.32.86,2.31,1.51l-21.86,13.66c-2.7,1.69-5.44,3.33-8.1,5.1s-3.38,4.41-1.91,6.64,4.11,2.75,6.84,1.06c8.64-5.36,17.26-10.78,25.89-16.18.91-.56,1.83-1.1,3.25-2,0,6.09,0,11.72,0,17.34a2.17,2.17,0,0,1-.42,1.09c-8.31,12.73-17.91,24-32.61,29.77-7,2.74-14.4,4-21.76,5.33-8.23,1.52-16.46,3.1-25,4.71,6.54-7.64,12.9-14.9,19.06-22.34,2.21-2.68,1.35-5.21-2.07-7.43q-13.83-9-27.69-17.84L17.19,163.31c6.74-1.15,12.84-2.22,18.94-3.23,7.68-1.28,15.37-2.51,23.06-3.76,5.33-.86,6.75-4.49,3.24-8.73Q43.86,125.21,25.2,102.9l-1.48-1.83H87c6.18,0,8-2.63,5.68-8.32Q85.88,75.83,79.08,58.91c-.4-1-.75-2-1.3-3.46l23.87,11.89c5.13,2.55,6.5,2.09,9.24-3q10.32-19.23,20.67-38.46c.36-.66.73-1.32,1.46-2.63V99.39c-1.05.18-1.48-.79-2.1-1.31-5.31-4.55-10.57-9.18-15.9-13.71-2.65-2.26-5.22-2.22-7.11-.08s-1.5,4.65,1.22,7q10.94,9.59,22,19a5.34,5.34,0,0,1,2.14,4.55C133.16,127.2,133.21,139.5,133.21,151.93Zm122.13,13.4Q230.7,181.25,206,197.12c-4.75,3.06-5.06,5.32-1.38,9.6,5.73,6.65,11.44,13.32,17.68,20.58-6-1.12-11.3-2.09-16.59-3.11-8.23-1.58-16.59-2.59-24.63-5a59.2,59.2,0,0,1-30.71-21.3c-7.8-10.22-7.89-10.16-7.89-23v-5.84c1.61,1,2.77,1.66,3.92,2.38L171,186.86c1.55,1,3.17,1.88,5,1.13a4.58,4.58,0,0,0,.74-8.32c-4-2.57-8.11-5.09-12.18-7.62l-18-11.18c12.54-7.52,24.85-14.91,37.15-22.32a17,17,0,0,0,3-2,4.17,4.17,0,0,0,.82-5.68,4.41,4.41,0,0,0-5.47-1.92,12.85,12.85,0,0,0-2.61,1.44q-17.07,10.23-34.15,20.46c-.81.48-1.51,1.33-2.87,1.19v-9.22c0-9.2.08-18.4-.06-27.6a5.86,5.86,0,0,1,2.34-5.07c6.64-5.62,13.19-11.35,19.76-17,.91-.78,1.85-1.53,2.69-2.39,2-2.1,2.22-4.53.57-6.42s-4.37-2.23-6.65-.32c-5.35,4.51-10.6,9.13-15.9,13.7l-2.54,2.17V23.21l13.75,25.58c3,5.53,5.92,11.08,8.93,16.59,2,3.7,3.81,4.3,7.58,2.46,8.21-4,16.38-8.13,25-12.42L187.35,82.05c-1.48,3.7-3,7.38-4.45,11.09-2.05,5.19-.23,7.92,5.33,7.92q30,0,60,0H252c-5.63,6.75-10.89,13.09-16.17,19.41q-11.15,13.36-22.3,26.7c-1.53,1.82-2.84,3.71-1.79,6.22s3.23,2.65,5.45,3c13.55,2.22,27.08,4.49,40.74,6.77C257.34,164.45,256.22,164.76,255.34,165.33Z"/></g></g></svg>