<svg xmlns="http://www.w3.org/2000/svg" xmlns:xlink="http://www.w3.org/1999/xlink" viewBox="0 0 223.35 271.92"><defs><style>.cls-1{fill:url(#Degradado_sin_nombre_8);}.cls-2{fill:url(#Degradado_sin_nombre_8-2);}.cls-3{fill:url(#Degradado_sin_nombre_8-3);}.cls-4{fill:url(#Degradado_sin_nombre_8-4);}.cls-5{fill:url(#Degradado_sin_nombre_8-5);}.cls-6{fill:url(#Degradado_sin_nombre_8-6);}.cls-7{fill:url(#Degradado_sin_nombre_8-7);}.cls-8{fill:url(#Degradado_sin_nombre_8-8);}.cls-9{fill:url(#Degradado_sin_nombre_8-9);}.cls-10{fill:url(#Degradado_sin_nombre_8-10);}.cls-11{fill:url(#Degradado_sin_nombre_8-11);}.cls-12{fill:url(#Degradado_sin_nombre_8-12);}</style><linearGradient id="Degradado_sin_nombre_8" x1="63.03" y1="15.63" x2="259.03" y2="99.63" gradientUnits="userSpaceOnUse"><stop offset="0" stop-color="#662d91"/><stop offset="0.16" stop-color="#5e3294"/><stop offset="0.41" stop-color="#49409d"/><stop offset="0.71" stop-color="#2757ab"/><stop offset="1" stop-color="#0071bc"/></linearGradient><linearGradient id="Degradado_sin_nombre_8-2" x1="29.77" y1="93.21" x2="225.77" y2="177.21" xlink:href="#Degradado_sin_nombre_8"/><linearGradient id="Degradado_sin_nombre_8-3" x1="63.02" y1="15.63" x2="259.02" y2="99.63" xlink:href="#Degradado_sin_nombre_8"/><linearGradient id="Degradado_sin_nombre_8-4" x1="63.58" y1="14.33" x2="259.58" y2="98.33" xlink:href="#Degradado_sin_nombre_8"/><linearGradient id="Degradado_sin_nombre_8-5" x1="63.09" y1="15.48" x2="259.09" y2="99.48" xlink:href="#Degradado_sin_nombre_8"/><linearGradient id="Degradado_sin_nombre_8-6" x1="63.46" y1="14.6" x2="259.46" y2="98.6" xlink:href="#Degradado_sin_nombre_8"/><linearGradient id="Degradado_sin_nombre_8-7" x1="63.33" y1="14.92" x2="259.33" y2="98.92" xlink:href="#Degradado_sin_nombre_8"/><linearGradient id="Degradado_sin_nombre_8-8" x1="63.71" y1="14.02" x2="259.71" y2="98.02" xlink:href="#Degradado_sin_nombre_8"/><linearGradient id="Degradado_sin_nombre_8-9" x1="63.46" y1="14.6" x2="259.46" y2="98.6" xlink:href="#Degradado_sin_nombre_8"/><linearGradient id="Degradado_sin_nombre_8-10" x1="62.32" y1="17.27" x2="258.32" y2="101.27" xlink:href="#Degradado_sin_nombre_8"/><linearGradient id="Degradado_sin_nombre_8-11" x1="62.26" y1="17.41" x2="258.26" y2="101.41" xlink:href="#Degradado_sin_nombre_8"/><linearGradient id="Degradado_sin_nombre_8-12" x1="62.33" y1="17.25" x2="258.33" y2="101.25" xlink:href="#Degradado_sin_nombre_8"/></defs><title>primavera</title><g id="Capa_2" data-name="Capa 2"><g id="Capa_1-2" data-name="Capa 1"><path class="cls-1" d="M123.16,41.33v.14C123.22,41.46,123.28,41.34,123.16,41.33Z"/><path class="cls-2" d="M219.44,81.61c-4.38-14.18-10.42-27.51-21-38.24C186.29,31,171.71,24.85,154.2,27.79c-9.34,1.58-17.55,5.26-20.72,15.42-.18.75-.35,1.5-.59,2.54a2.45,2.45,0,0,1,.1-2.53c1-9.42,2.81-18.66,6.42-27.47a17.54,17.54,0,0,1,4-6c2.37-2.31,2.41-5.16.29-7.26s-4.91-2-7.33.26a26.82,26.82,0,0,0-6.23,9.42c-3.77,8.85-5.41,18.22-6.85,27.65l-.1,1.53c.12,0,.06.13,0,.14v.22a4.5,4.5,0,0,1-.72-3.33q-1-9.76-2-19.53c-.33-3.31-2.61-5.49-5.46-5.2s-4.69,2.67-4.39,6.09q.78,9,1.6,18.09a1.79,1.79,0,0,1,.18,1.95c-.16.23-.53-.14-.65-.46-2-1.45-1.62-3.77-2-5.76-2.1-10.84-5.19-21.31-11.3-30.66C96.57,0,93.7-.79,91.21.83s-3,4.54-1.14,7.42a60.9,60.9,0,0,1,7.66,17.67c.19.68.78,1.48.21,2-.74.75-1.51-.13-2.17-.42-11.3-5-22.54-4.8-33.75.31A82.54,82.54,0,0,0,46.9,37.41C38.49,43.75,29.47,48.1,18.58,47.65c-3.45-.14-5.71,3.58-4.4,6.73a5.1,5.1,0,0,0,4.52,3.16c8.11.86,16.23,1.74,24.33,2.7,4.44.52,8.86,1.22,13.53,1.88-3.19,3.64-6.14,6.94-9,10.31-7.43,8.75-14.21,18-22.63,25.92-6,5.59-12.43,10.31-20.85,11.53a4.62,4.62,0,0,0-3.62,2.91c-1.15,2.67-.06,5.26,3,6.7,9.13,4.32,18.77,4.44,28.49,3.13,17.84-2.4,34.31-8.75,49.78-17.81,2.69-1.58,5.28-3.32,8.07-5.08.37,2.87.76,5.5,1.06,8.15,1.59,14,8.13,24.48,21.52,30,4.14,1.71,4.17,1.66,3.58,6.18,0,.16-.08.32-.1.48a73.48,73.48,0,0,1-4.38,17.07,5,5,0,0,0,.8,5.44,5.08,5.08,0,0,0,5.56,1.37c.31-.09.62-.18.92-.3.89-.36,1.24-.15,1.33.9.39,4.28.42,8.56.47,13.21L119,180.87c-9.93-9.26-21.21-16.1-34.62-18.9-10.3-2.15-20.07-1-28.82,5.41-1.93,1.42-3.48,3-3,5.62s2.3,3.66,4.67,4.33a43.64,43.64,0,0,1,19.86,11.55c2,2.09,4,4.23,6,6.37,5,5.42,9.44,11.32,15,16.16,6.37,5.53,13.43,9,22.31,6.28,0,.73,0,1.36,0,2a457,457,0,0,1-4.18,45.84c-.45,3.07,1,5.51,3.69,6.22,3.21.85,5.8-1.46,6.33-5.52,1.23-9.46,2.4-18.92,3-28.44.11-1.71.64-1.58,1.89-.95a16.58,16.58,0,0,0,10.59,1.58c6-1,10.73-4.35,15-8.43,5.6-5.38,10.5-11.42,15.64-17.24,6.63-7.51,14.47-13,24.25-15.6a4.93,4.93,0,0,0,4-4.08c.37-2.22-.58-3.86-2.34-5.22-8.69-6.69-18.52-8.06-28.94-6-13.09,2.61-24.21,9.12-34,18a53.77,53.77,0,0,0-4,4.42l-.6-.47c0-.38,0-.77,0-1.15.09-12.69.07-25.38-1-38-.11-1.39.67-1.83,1.55-2.39a50.19,50.19,0,0,0,14.43-13.83c12.52-18.16,15.45-38.48,13.3-59.9a116.24,116.24,0,0,0-2.35-12.43c.71.18,1.1.25,1.47.39a88.11,88.11,0,0,1,31.13,20.06c9.24,9,15.88,19.53,15.92,33.12a4.5,4.5,0,0,0,3.25,4.37,4.71,4.71,0,0,0,5.3-1.31,14.15,14.15,0,0,0,1.37-1.7c5.63-7.61,8-16.28,8.23-25.62C223.52,97.24,221.83,89.37,219.44,81.61ZM113.19,208.55c-3.38-.63-6.07-2.51-8.61-4.67a73.93,73.93,0,0,1-6.42-6.59c-8.49-9.32-16-19.72-28.2-25.68a28.84,28.84,0,0,1,15,.73,62.68,62.68,0,0,1,31.62,20.8,17.09,17.09,0,0,1,3.84,8.75C121,206.48,117.8,209.41,113.19,208.55Zm19.56,12.74a22.55,22.55,0,0,1,6.38-11.47c9.15-9,19.79-15.44,32.43-18.24a25.37,25.37,0,0,1,11.6,0c-12.72,6.29-20.36,17.25-29.25,26.88a44.65,44.65,0,0,1-8.76,7.94,12.81,12.81,0,0,1-6.05,2.24C134.46,229,131.77,225.81,132.75,221.29ZM132.46,46c.64,1.26-.16,1.88-.07,2.63C131.92,47.87,132.09,47.15,132.46,46ZM45.57,50.42c1.93-1.32,3.59-2.45,5.24-3.6C56.5,42.88,61.88,38.43,68.49,36c11.74-4.36,22.16-1.65,31.64,6a2.26,2.26,0,0,1,1,1.59A116.11,116.11,0,0,1,102,55.48c-7.14-4.68-14.45-7-22.59-6a29.11,29.11,0,0,0-10.1,3.16,6,6,0,0,1-3.9.76C58.93,52.4,52.47,51.46,45.57,50.42ZM79.86,94.19C64.3,104,47.55,110.62,29.19,112.87c-2,.25-4.12.27-6.18.4,11.64-8.75,20.26-20,29.26-30.92,5.29-6.42,10.48-12.95,17.17-18,8.42-6.42,17.4-6.76,26.3-1,5.26,3.4,6.43,9.1,2.83,14.23C93.65,84.55,87,89.68,79.86,94.19Zm21.23,15.16c-.76-4.95-1.3-9.93-2-14.88a3.82,3.82,0,0,1,1.46-4,42.22,42.22,0,0,0,3.88-4c2.89,14.14,8,27.51,10.8,41.84C106.83,124.4,102.41,118,101.09,109.35Zm41.51,24.87a46.11,46.11,0,0,1-15.73,19c-.78.55-1.62,1-2.64,1.64.54-3.33,1.12-6.4,1.51-9.5,1.35-10.72-.85-21-3.66-31.29-2.41-8.78-4.92-17.53-7.17-26.35a30.94,30.94,0,0,1-.27-16c1.67-6,5.85-9.56,11.69-11.11,5.23-1.4,9.19,1.21,12.78,4.63,5.69,5.39,8,12.4,9.28,19.8C151.21,101.93,149.87,118.46,142.6,134.22Zm69.67-21.45a67.67,67.67,0,0,0-15.77-23.1c-10.41-10-22.17-18-35.87-22.86-3-1.07-6.55-.72-9-2.45s-3.64-5-6.19-6.7c-3.35-2.17-3.51-5.07-3.07-8.38.5-3.84,1.75-7.17,5.55-9.07,9.17-4.58,18.47-4,27.7-.5,11.68,4.45,19.51,13.26,25.46,23.85A98.52,98.52,0,0,1,212.9,97.9,37.88,37.88,0,0,1,212.27,112.77Z"/><path class="cls-3" d="M123.07,41.34h0c0,.1,0,.12.07.12v-.14h-.09Z"/><path class="cls-4" d="M123.26,39.8l-.84-1.44c.27.85.27,1.76.54,2.62A1.31,1.31,0,0,1,123.26,39.8Z"/><path class="cls-5" d="M123,41.13c0,.14,0,.21.09.21S123,41.1,123,41C123,41,123,41.08,123,41.13Z"/><path class="cls-6" d="M123.14,41.69v-.22s-.06,0-.07-.12h0s0-.07-.09-.21,0-.1,0-.15c-.27-.86-.27-1.77-.54-2.62A4.5,4.5,0,0,0,123.14,41.69Z"/><path class="cls-7" d="M123,41c0,.12.06.24.11.36h.09l.1-1.53A1.31,1.31,0,0,0,123,41Z"/><path class="cls-8" d="M132.88,44.37a2.53,2.53,0,0,1,.6-1.16H133A5.25,5.25,0,0,1,132.88,44.37Z"/><path class="cls-9" d="M132.89,45.75c.24-1,.41-1.79.59-2.54a2.53,2.53,0,0,0-.6,1.16,5.25,5.25,0,0,0,.11-1.15A2.45,2.45,0,0,0,132.89,45.75Z"/><path class="cls-10" d="M112.22,37.81c-.27.46,0,1.11-.47,1.49C112.52,39.13,112.55,39,112.22,37.81Z"/><path class="cls-11" d="M112.4,39.76a1.79,1.79,0,0,0-.18-1.95c.33,1.23.3,1.32-.47,1.49C111.87,39.62,112.24,40,112.4,39.76Z"/><path class="cls-12" d="M132.46,46c-.37,1.17-.54,1.89-.07,2.63C132.3,47.86,133.1,47.24,132.46,46Z"/></g></g></svg>