<svg xmlns="http://www.w3.org/2000/svg" viewBox="0 0 428.77 385.38"><defs><style>.cls-1{fill:#41516a;}</style></defs><title>referencia</title><g id="Capa_2" data-name="Capa 2"><g id="Capa_1-2" data-name="Capa 1"><path class="cls-1" d="M358,192.72q0-93.51-.08-187c0-4.44.68-5.7,4.12-5.66,21,.24,42.08.2,63.12,0,2.85,0,3.57.9,3.57,4.79q-.13,187.8,0,375.62c0,3.76-.56,4.89-3.51,4.86q-31.56-.29-63.11,0c-3.33,0-4.2-1-4.19-5.57Q358.15,286.24,358,192.72Z"/><path class="cls-1" d="M.09,192.14Q.09,98.85,0,5.59C0,1,.87,0,4.19,0,17.57.31,31,.25,44.35.06c2.7,0,3.36,1,3.36,4.56q-.1,188.1,0,376.19c0,3.68-.78,4.52-3.41,4.49-13.51-.18-27-.22-40.55,0-3,.06-3.73-1.1-3.73-5.09Q.17,286.18.09,192.14Z"/><path class="cls-1" d="M167.56,193.22q0,93.29.08,186.55c0,4.5-.74,5.65-4.12,5.57-13.51-.3-27-.21-40.55,0-2.54,0-3.15-1-3.15-4.29q.09-188.35,0-376.7c0-3.43.72-4.26,3.19-4.23,13.64.15,27.29.22,40.93,0,3.09-.06,3.69,1.19,3.68,5.1Q167.49,99.18,167.56,193.22Z"/><path class="cls-1" d="M239.65,192.65q0,93.54.08,187.07c0,4.47-.71,5.7-4.13,5.62-13.38-.3-26.78-.22-40.17,0-2.62,0-3.41-.8-3.41-4.49q.12-188.09,0-376.19C192,1,192.69,0,195.38.06c13.52.19,27,.28,40.56,0,3.48-.09,3.77,1.65,3.77,5.57Q239.58,99.12,239.65,192.65Z"/><path class="cls-1" d="M333.49,193.22q0,93.27.08,186.55c0,4.54-.77,5.83-4.14,5.56a123,123,0,0,0-16.06,0c-2.57.14-3.13-1-3.12-4.28q.13-46.12.06-92.24,0-141.46-.09-282.92c0-4.67.82-6.12,4.32-5.82a97.56,97.56,0,0,0,15.29,0c3.06-.22,3.73,1.09,3.72,5.07q-.15,74.46-.06,148.93Z"/><path class="cls-1" d="M72.18,192.68q0-93.55-.09-187.11c0-4.59.83-5.78,4.16-5.53A161.17,161.17,0,0,0,92.7.1c1.93,0,2.9.61,2.61,3.41-.08.84,0,1.71,0,2.57q0,186.6.1,373.21c0,5.09-1,6.37-4.62,6a94,94,0,0,0-14.91,0c-3,.21-3.78-.9-3.76-5,.12-43.3.07-86.6.07-129.9Z"/><path class="cls-1" d="M262.69,192.69q0-93.54-.09-187.07c0-4.51.74-5.86,4.14-5.59A153,153,0,0,0,283.19.1c2-.06,2.86.71,2.58,3.45-.08.84,0,1.71,0,2.57q0,186.56.09,373.12c0,5-.88,6.44-4.57,6.1a100.18,100.18,0,0,0-15.3,0c-2.69.16-3.37-.9-3.36-4.52.11-37.79.07-75.58.07-113.37Z"/></g></g></svg>