<svg xmlns="http://www.w3.org/2000/svg" viewBox="0 0 385.6 385.59"><defs><style>.cls-1{fill:#41516a;}</style></defs><title>tamaño</title><g id="Capa_2" data-name="Capa 2"><g id="Capa_1-2" data-name="Capa 1"><path class="cls-1" d="M336.12,39.61q0,50.3,0,100.58,0,68.38.06,136.77c0,2.63-.59,3.33-3.25,3.26-7.49-.21-15-.15-22.49,0-2,0-2.42-.61-2.41-2.5q.06-137.52,0-275c0-2.11.54-2.67,2.64-2.64l1.24,0V0h24.23l0,0L385.6,49.5,365.8,69.3Z"/><path class="cls-1" d="M280.23,67.08a6,6,0,0,0-1.91-4.72Q248,32.2,217.87,1.9A6,6,0,0,0,213.15,0Q140.1.1,67.05,0A6,6,0,0,0,62.34,2Q32.28,32.13,2.09,62.19a6.31,6.31,0,0,0-2.06,5Q.11,172,0,276.84c0,2.68.59,3.43,3.37,3.42q68.25-.13,136.5-.06,68.55,0,137.11.05c2.51,0,3.28-.42,3.28-3.17Q280.12,172.08,280.23,67.08ZM160.77,28.38,139.12,78.85,113.9,28.38ZM249,252.15c-7.39-.16-14.8-.17-22.19,0-2.47.06-2.89-.75-2.89-3,.07-44.6,0-89.2.12-133.8,0-3-.74-3.48-4.38-3.18a116.28,116.28,0,0,1-18.94,0c-3.74-.31-4.62,0-4.62,3,.09,44.51,0,89,.12,133.51,0,2.58-.43,3.49-3.31,3.48q-53-.18-105.91,0c-2.61,0-3-.76-3-3.14.08-44.6,0-89.2.12-133.8,0-2.8-.66-3.35-4.28-3a104.42,104.42,0,0,1-18.29.08c-4.57-.39-5.67-.3-5.66,3.08q.15,66.45.07,132.9c0,3.84,0,3.84-4,3.84-7.1,0-14.2-.09-21.3.06-2.16,0-2.57-.62-2.56-2.66q.07-85.65,0-171.31a5,5,0,0,1,1.52-4Q52,52,74.26,29.7A6.13,6.13,0,0,1,84,31.17l55.48,110.88,0,0a1.67,1.67,0,0,0,3-.11c6.95-16.22,13.68-31.95,20.43-47.67,9.1-21.23,18.25-42.43,27.29-63.69.78-1.83,1.71-2.26,3.66-2.54,7.51-1.09,12.73,1.81,17.89,7.29,12.4,13.17,25.49,25.69,38.36,38.43a6,6,0,0,1,2,4.65q-.09,85.35,0,170.71C252.17,251.76,251.41,252.21,249,252.15Z"/><polygon class="cls-1" points="336.13 0 336.13 0.02 336.11 0 336.13 0"/><path class="cls-1" d="M240.61,336.11q-50.3,0-100.58,0-68.39,0-136.77.06c-2.63,0-3.33-.59-3.26-3.25.21-7.49.15-15,0-22.49,0-2,.61-2.42,2.5-2.41q137.52.06,275,0c2.11,0,2.67.54,2.64,2.64,0,.41,0,.83,0,1.24h0V336.1l0,0-49.48,49.47-19.8-19.8Z"/></g></g></svg>