<svg xmlns="http://www.w3.org/2000/svg" xmlns:xlink="http://www.w3.org/1999/xlink" viewBox="0 0 228.47 273.14"><defs><style>.cls-1{fill:url(#Degradado_sin_nombre_8);}</style><linearGradient id="Degradado_sin_nombre_8" x1="22.41" y1="94.23" x2="224.34" y2="201.11" gradientUnits="userSpaceOnUse"><stop offset="0" stop-color="#662d91"/><stop offset="0.16" stop-color="#5e3294"/><stop offset="0.41" stop-color="#49409d"/><stop offset="0.71" stop-color="#2757ab"/><stop offset="1" stop-color="#0071bc"/></linearGradient></defs><title>verano</title><g id="Capa_2" data-name="Capa 2"><g id="Capa_1-2" data-name="Capa 1"><path class="cls-1" d="M226.25,71.79a48.65,48.65,0,0,0-15.66-8.88,50.17,50.17,0,0,0-22-2.36c.92-.64,1.21-.89,1.55-1.07a27.93,27.93,0,0,1,20.13-2.67c3.77.9,6.3-.28,6.91-3.11s-1.18-4.76-4.7-5.65a36.83,36.83,0,0,0-19.1.39,42.26,42.26,0,0,0-13.06,6.46c-.24-1.17-.42-2-.6-2.89a32.36,32.36,0,0,0-11.5-18.91c-2.2-1.8-4.7-1.66-6.4.16s-1.64,4.54.42,6.61c.48.49,1,.91,1.54,1.39a22.37,22.37,0,0,1,7.07,13.38c.46.73.77,1.55.13,2.22-.19.2-.75-.41-.81-.94a27.08,27.08,0,0,0-6.91-6.47c-12.67-7.76-25.75-6.09-38.85-1.38-2.41.86-3,3.11-2.31,5.47a4.57,4.57,0,0,0,5.52,2.87c.86-.19,1.68-.59,2.53-.83,7.61-2.23,15.29-3.34,23.08-.91a18.07,18.07,0,0,1,10.68,8.69c-1.84-.38-3.18-.69-4.53-.91a30.38,30.38,0,0,0-4.13-.48c-15.66-.33-27.66,7.06-37.85,18.12-2.29,2.49-2.2,5.31-.09,7.11s4.67,1.36,7-1.19a51.62,51.62,0,0,1,13.15-10.57c8.81-4.83,17.84-6.12,27.3-1.78,1.59.73,1.75,1.34,1,2.75A49.57,49.57,0,0,1,157.5,88c-6.38,6.52-12.76,13-19.29,19.43a139.76,139.76,0,0,0-30.49,43.17c-3.11,6.95-6.14,13.94-8.55,21.16-1.13,3.37-3.78,1.69-5.74,1.85-2.32.19-1.18-1.9-1.15-2.85.17-7.43.32-14.86,0-22.3C91.73,131.64,90,115,84.26,99.1,79.63,86.14,73,74,67,61.69c-3-6.15-5.67-12.41-6.77-19.24-.32-1.94.15-2.56,2.15-2.7a28.12,28.12,0,0,1,20.44,6.44C89,51.26,93.29,57.72,96.45,65c1.23,2.83,3.55,3.87,5.94,2.91A4.35,4.35,0,0,0,105,61.84c-5.44-13-13.73-23.32-27-28.92-3.64-1.53-7.54-2.07-12-2.5,5.1-4.16,10.35-5.54,16.22-4.62C89.57,27,96,30.45,101.89,34.89c2.72,2,5.4,1.88,7.07-.35s1.17-4.74-1.55-6.9a55.25,55.25,0,0,0-13.27-7.81C83.54,15.46,73,14.66,62.89,21.2c-.38.24-.73.14-1.08-.28a23.81,23.81,0,0,1,12.92-12c3-1.24,4-3.74,2.93-6.19S74-.58,71.14.59A33.34,33.34,0,0,0,59.42,8.5a53.15,53.15,0,0,0-6.14,8.57,38.65,38.65,0,0,0-28-17c-3.61-.46-5.93.94-6.34,3.76s1.3,4.73,5,5.3c.49.08,1,.16,1.48.22a26.45,26.45,0,0,1,15.36,7.09c.76.69,2,1.11,1.83,2.7-.6-.24-1.14-.44-1.67-.66a48.6,48.6,0,0,0-36.25-.36c-3.42,1.3-4.8,3.58-3.77,6.25s3.45,3.6,7,2.28A42.85,42.85,0,0,1,22.64,24c2.9,0,5.93-.06,9.36,1.36a21.33,21.33,0,0,0-8,2.28C13.77,32.83,8.83,42,5.61,52.38c-1,3.31.06,5.77,2.69,6.56,2.91.89,4.93-.48,6-4A39.48,39.48,0,0,1,21.4,41c5.52-6.66,14.51-8.81,21.63-5.19-2.54,1.67-5.19,3.2-7.59,5C23,50.41,16.93,63.47,14.73,78.65c-.73,5,.26,7.33,3.39,7.82C21.44,87,23,85,23.75,79.78a53.33,53.33,0,0,1,6.63-19.86A39.45,39.45,0,0,1,51,42.35a65,65,0,0,0,6.15,20c5.75,12,12.24,23.76,17.08,36.21,9.17,23.63,9.56,48.37,8.76,73.23,0,1.58-.76,1.73-2,1.73q-34.23,0-68.46,0c-1.62,0-2.29-.45-2.41-2.11A108,108,0,0,1,11,146.51a103.5,103.5,0,0,1,17.26-42.86c2.05-3,1.72-5.66-.73-7.23s-4.87-.8-6.78,2.13c-24.88,38.1-28,78-5.59,117.59,23.8,42,61.5,60.62,109.66,56.42,26.77-2.34,49.64-14.06,68-33.54,25.09-26.56,34.87-58.29,29.71-94.53a83.36,83.36,0,0,0-4.12-16.68,4.36,4.36,0,0,0-5.72-2.85,4.52,4.52,0,0,0-2.91,5.48c.19.87.52,1.7.77,2.56a100.76,100.76,0,0,1,3.83,38.49c-.15,1.44-.42,2-2.05,2q-13.83-.12-27.68,0c-1.87,0-2-.69-1.93-2.28a33.42,33.42,0,0,0-.24-7.42c-2.66-14.74-16-24.16-31.27-22.17-13.79,1.81-24,14.92-22.74,29.41.17,2-.34,2.51-2.3,2.46-5.26-.12-10.52-.09-15.78,0-1.69,0-2.29-.13-1.54-2.07A209.55,209.55,0,0,1,124,139.28c7.83-13.23,18.91-23.64,29.63-34.35,7.44-7.43,15.23-14.54,20.05-24.12.86-1.71,1.47-.63,2.14,0a39.37,39.37,0,0,1,11.14,17.26c3,9.23,2.72,18.53.71,27.89-.63,3,.82,5.27,3.53,5.9a4.37,4.37,0,0,0,5.26-3.59c2.85-12.88,2.69-25.54-2.79-37.83a57.34,57.34,0,0,0-10.1-14.82c7.7.23,13.75,2.42,17.57,8.8,3.48,5.82,4.12,12.31,3.84,18.93-.14,3.36,1.38,5.53,4.15,5.74s4.83-1.7,5-5.07a46.13,46.13,0,0,0-3.42-20.91,27.33,27.33,0,0,0-12-13.34,7.15,7.15,0,0,1,3.43.2,44.7,44.7,0,0,1,18.55,8.92c2.53,2,5.11,1.8,6.83-.35S228.73,73.86,226.25,71.79ZM164.34,250.14a5.23,5.23,0,0,1-2.85.53H63a6,6,0,0,1-3.38-.83,88.37,88.37,0,0,1-11.39-8H176.33A89.8,89.8,0,0,1,164.34,250.14Zm26.51-22.46c-.54.68-1.49.36-2.26.36q-76.29,0-152.58,0a3.55,3.55,0,0,1-3.27-1.49c-1.74-2.39-3.57-4.71-5.69-7.5h170C195.48,222.43,193,225,190.85,227.68Zm18.06-31.28c-1.09,2.69-2.13,5.22-3.15,7.77a1.54,1.54,0,0,1-1.77,1.17,18,18,0,0,0-2.08,0q-89.59,0-179.17.08c-2.8,0-4.12-.88-4.9-3.33-.58-1.86-1.36-3.66-2.13-5.68Z"/></g></g></svg>